name C:\Users\antoi\Documents\MyRepositories\upper-imu-dc\Results\main_tracking\Case_89\kinematics.mot
datacolumns 10
datarows 37
range 7.88000000 8.24000000
endheader 
time	clav_prot	clav_elev	scapula_abduction	scapula_elevation	scapula_upward_rot	scapula_winging	plane_elv	shoulder_elv	axial_rot	
          7.88000000	        -47.96995396	          2.24891532	         -9.44800037	         -7.34284482	         76.04321817	        -12.71720424	         19.58184137	         57.35526610	          8.55081112	
          7.89000000	        -47.96137765	          2.09276346	         -9.65249583	         -7.47483088	         75.70079045	        -12.66741540	         19.47755540	         56.82171584	          8.85523193	
          7.90000000	        -47.95370624	          1.93609084	         -9.86126234	         -7.60690833	         75.35468733	        -12.61665956	         19.36969191	         56.28307932	          9.15399831	
          7.91000000	        -47.94716078	          1.77942587	        -10.07435495	         -7.73866949	         75.00546072	        -12.56526455	         19.25718278	         55.74009409	          9.44616868	
          7.92000000	        -47.94197682	          1.62332548	        -10.29182113	         -7.86968806	         74.65370607	        -12.51359334	         19.13896445	         55.19359396	          9.73084096	
          7.93000000	        -47.93839938	          1.46837038	        -10.51369657	         -7.99952294	         74.30005547	        -12.46204011	         19.01399714	         54.64450076	         10.00717028	
          7.94000000	        -47.93667778	          1.31515853	        -10.74000274	         -8.12772336	         73.94516767	        -12.41102526	         18.88128732	         54.09381245	         10.27439118	
          7.95000000	        -47.93706017	          1.16429711	        -10.97074639	         -8.25383524	         73.58971485	        -12.36098923	         18.73991099	         53.54258730	         10.53184221	
          7.96000000	        -47.93978780	          1.01639291	        -11.20592035	         -8.37740845	         73.23436641	        -12.31238509	         18.58903613	         52.99192413	         10.77899032	
          7.97000000	        -47.94508823	          0.87204131	        -11.44550475	         -8.49800525	         72.87977035	        -12.26566923	         18.42794408	         52.44293963	         11.01545245	
          7.98000000	        -47.95316820	          0.73181418	        -11.68946748	         -8.61520894	         72.52653438	        -12.22129065	         18.25604817	         51.89674210	         11.24101177	
          7.99000000	        -47.96420592	          0.59624794	        -11.93776325	         -8.72863242	         72.17520839	        -12.17967921	         18.07290792	         51.35440312	         11.45562558	
          8.00000000	        -47.97834312	          0.46583228	        -12.19033104	         -8.83792572	         71.82626897	        -12.14123338	         17.87823668	         50.81693071	         11.65942410	
          8.01000000	        -47.99567718	          0.34100124	        -12.44708916	         -8.94278174	         71.48010802	        -12.10630854	         17.67190143	         50.28524731	         11.85270018	
          8.02000000	        -48.01625344	          0.22212761	        -12.70792833	         -9.04293937	         71.13702586	        -12.07520669	         17.45391591	         49.76017458	         12.03589161	
          8.03000000	        -48.04005848	          0.10952171	        -12.97270362	         -9.13818322	         70.79722905	        -12.04816874	         17.22442818	         49.24242472	         12.20955784	
          8.04000000	        -48.06701560	          0.00343319	        -13.24122690	         -9.22834137	         70.46083311	        -12.02536965	         16.98370489	         48.73259760	         12.37435457	
          8.05000000	        -48.09698316	         -0.09594526	        -13.51326101	         -9.31328170	         70.12786961	        -12.00691650	         16.73211505	         48.23118363	         12.53100899	
          8.06000000	        -48.12975705	         -0.18847475	        -13.78851676	         -9.39290880	         69.79829752	        -11.99284894	         16.47011474	         47.73856970	         12.68029643	
          8.07000000	        -48.16507697	         -0.27406762	        -14.06665376	         -9.46716158	         69.47201717	        -11.98314194	         16.19823294	         47.25504618	         12.82301915	
          8.08000000	        -48.20263570	         -0.35268608	        -14.34728456	         -9.53601199	         69.14888552	        -11.97771007	         15.91705892	         46.78081327	         12.95998775	
          8.09000000	        -48.24209032	         -0.42434205	        -14.62998142	         -9.59946480	         68.82873117	        -11.97641282	         15.62723134	         46.31598609	         13.09200523	
          8.10000000	        -48.28307404	         -0.48909711	        -14.91428544	         -9.65755781	         68.51136722	        -11.97906045	         15.32942877	         45.86059935	         13.21985235	
          8.11000000	        -48.32520784	         -0.54706226	        -15.19971653	         -9.71036192	         68.19660243	        -11.98542041	         15.02435871	         45.41461044	         13.34427529	
          8.12000000	        -48.36811079	         -0.59839658	        -15.48578380	         -9.75798070	         67.88424907	        -11.99522390	         14.71274608	         44.97790222	         13.46597433	
          8.13000000	        -48.41140845	         -0.64330515	        -15.77199524	         -9.80054932	         67.57412783	        -12.00817199	         14.39532099	         44.55028521	         13.58559376	
          8.14000000	        -48.45473878	         -0.68203646	        -16.05786589	         -9.83823313	         67.26606950	        -12.02394080	         14.07280658	         44.13149956	         13.70371327	
          8.15000000	        -48.49775556	         -0.71487933	        -16.34292431	         -9.87122584	         66.95991381	        -12.04218563	         13.74590781	         43.72121657	         13.82084142	
          8.16000000	        -48.54012936	         -0.74215926	        -16.62671755	         -9.89974714	         66.65550542	        -12.06254405	         13.41530172	         43.31904081	         13.93741194	
          8.17000000	        -48.58154597	         -0.76423436	        -16.90881435	         -9.92403991	         66.35268710	        -12.08463776	         13.08162904	         42.92451322	         14.05378337	
          8.18000000	        -48.62170262	         -0.78149076	        -17.18880637	         -9.94436684	         66.05129121	        -12.10807334	         12.74548591	         42.53711585	         14.17024081	
          8.19000000	        -48.66030275	         -0.79433711	        -17.46630821	         -9.96100638	         65.75113015	        -12.13244265	         12.40741598	         42.15627881	         14.28699943	
          8.20000000	        -48.69705062	         -0.80319945	        -17.74095761	         -9.97424870	         65.45198619	        -12.15732275	         12.06790471	         41.78139061	         14.40421120	
          8.21000000	        -48.73164710	         -0.80851593	        -18.01241605	         -9.98439161	         65.15360321	        -12.18227670	         11.72737458	         41.41181066	         14.52197189	
          8.22000000	        -48.76378771	         -0.81073102	        -18.28037049	         -9.99173613	         64.85568186	        -12.20685586	         11.38618038	         41.04688296	         14.64032685	
          8.23000000	        -48.79316321	         -0.81029254	        -18.54453610	         -9.99658399	         64.55787747	        -12.23060221	         11.04460456	         40.68595151	         14.75927624	
          8.24000000	        -48.81946200	         -0.80765165	        -18.80466024	         -9.99923744	         64.25979937	        -12.25305013	         10.70285467	         40.32837683	         14.87878007	
